<svg id="outputsvg" xmlns="http://www.w3.org/2000/svg" width="2048" height="2048" viewBox="0 0 20480 20480"><g id="l4ydLRGQjlGsSPUaFyhn6GL" fill="rgb(255,255,255)" style="transform: none;"><g style="transform: none;"><path id="p14U7CDkNR" d="M0 10240 l0 -10240 10240 0 10240 0 0 10240 0 10240 -10240 0 -10240 0 0 -10240z m15568 7300 c516 -56 987 -284 1368 -664 349 -349 566 -775 656 -1291 l23 -130 0 -5285 c0 -5040 -1 -5289 -18 -5380 -48 -253 -123 -475 -232 -687 -112 -216 -209 -352 -374 -525 -132 -138 -237 -226 -396 -332 -275 -184 -575 -303 -914 -363 -89 -16 -453 -18 -5361 -21 -3587 -2 -5302 1 -5380 8 -515 46 -1030 291 -1407 667 -385 385 -617 890 -663 1443 -14 162 -13 10255 0 10415 50 579 287 1102 680 1495 249 250 612 474 905 559 160 47 296 76 425 90 114 13 10569 13 10688 1z"></path><path id="po0c2uwmk" d="M9769 15547 c-15 -8 -96 -84 -180 -169 -195 -194 -283 -256 -589 -408 -321 -161 -865 -356 -1425 -513 -163 -46 -573 -151 -655 -167 -25 -5 -124 -28 -220 -50 -436 -101 -1196 -249 -1562 -304 -55 -8 -122 -26 -154 -40 -63 -29 -153 -116 -186 -179 -50 -99 -48 29 -48 -2603 0 -1721 3 -2471 11 -2495 41 -132 144 -209 277 -209 31 0 100 9 152 20 52 12 205 43 340 70 250 51 365 76 525 111 50 12 117 27 150 34 519 116 1144 291 1555 437 851 301 1402 572 1742 857 262 220 421 500 468 826 6 45 10 894 10 2397 l0 2328 -28 31 c-24 27 -35 32 -92 36 -45 3 -73 0 -91 -10z"></path><path id="pkwHFiWjb" d="M10554 15551 c-12 -5 -31 -22 -43 -37 l-21 -27 0 -2321 c0 -2524 -3 -2390 55 -2591 54 -186 164 -375 304 -519 191 -198 398 -339 766 -521 453 -225 936 -409 1630 -621 381 -117 905 -247 1565 -388 538 -115 559 -119 639 -114 117 7 201 60 248 156 l28 57 3 2481 c2 2395 2 2484 -16 2541 -23 73 -81 163 -130 202 -79 61 -114 71 -457 131 -483 85 -821 150 -1175 227 -91 19 -181 39 -200 43 -871 188 -1789 480 -2302 732 -269 132 -379 210 -596 422 l-153 150 -62 3 c-34 2 -72 -1 -83 -6z"></path><path id="pqrVigdKj" d="M9956 8714 c-693 -94 -1278 -581 -1500 -1249 -105 -315 -125 -678 -55 -1015 46 -223 162 -489 297 -680 104 -148 311 -349 462 -450 312 -208 620 -306 1000 -317 337 -10 588 34 859 151 521 225 908 674 1045 1213 54 208 71 523 42 736 -68 485 -310 913 -687 1217 -269 216 -575 348 -917 395 -137 18 -406 18 -546 -1z"></path></g></g><g id="lv2QvTgteMmbJPue0eELuD" fill="rgb(69,143,235)" style="transform: none;"><g style="transform: none;"><path id="p8vWBus4l" d="M4850 17569 c-129 -14 -265 -43 -425 -90 -293 -85 -656 -309 -905 -559 -393 -393 -630 -916 -680 -1495 -13 -160 -14 -10312 0 -10475 46 -553 278 -1058 663 -1443 377 -376 892 -621 1407 -667 78 -7 1802 -10 5410 -8 4937 3 5301 5 5391 21 339 60 639 179 914 363 159 106 264 194 396 332 165 173 262 309 374 525 109 212 184 434 232 687 17 91 18 341 18 5410 l0 5315 -23 130 c-90 516 -307 942 -656 1291 -381 380 -852 608 -1368 664 -119 12 -10634 12 -10748 -1z m5073 -2080 l27 -29 0 -2298 c0 -1483 -4 -2322 -10 -2367 -47 -326 -206 -606 -468 -826 -340 -285 -891 -556 -1742 -857 -411 -146 -1036 -321 -1555 -437 -33 -7 -100 -22 -150 -34 -225 -50 -826 -175 -933 -193 -137 -24 -254 54 -299 197 -19 61 -19 4878 1 4950 20 76 50 128 110 190 70 71 138 102 264 121 366 55 1126 203 1562 304 96 22 195 45 220 50 82 16 492 121 655 167 560 157 1104 352 1425 513 306 152 394 214 589 408 84 85 165 161 180 169 38 20 90 8 124 -28z m901 -116 c215 -211 325 -289 594 -421 513 -252 1431 -544 2302 -732 19 -4 109 -24 200 -43 354 -77 692 -142 1175 -227 343 -60 378 -70 457 -131 49 -39 107 -129 130 -202 18 -57 18 -145 16 -2511 l-3 -2451 -28 -57 c-41 -84 -125 -144 -216 -155 -49 -6 -98 3 -611 113 -660 141 -1184 271 -1565 388 -694 212 -1177 396 -1630 621 -287 142 -437 235 -603 371 -293 241 -452 506 -507 849 -13 77 -15 417 -15 2381 l0 2291 21 27 c28 35 55 47 98 41 27 -3 62 -32 185 -152z m-352 -6688 c758 -104 1368 -651 1563 -1400 81 -312 69 -694 -30 -990 -51 -152 -91 -240 -168 -370 -167 -280 -407 -509 -698 -668 -522 -285 -1173 -302 -1713 -43 -187 89 -341 200 -496 355 -156 157 -242 274 -334 451 -290 563 -270 1228 54 1776 207 350 554 643 928 783 285 107 605 145 894 106z"></path></g></g></svg>