<svg width="2048" height="2048" viewBox="0 0 2048 2048" fill="none" xmlns="http://www.w3.org/2000/svg">
<g clip-path="url(#clip0_1_2)">
<rect width="2048" height="2048" rx="1024" fill="white"/>
<path d="M279.257 2046.63C261.424 2044.68 242.624 2040.66 220.506 2034.13C180.002 2022.33 129.822 1991.22 95.4013 1956.5C41.0742 1901.92 8.31198 1829.29 1.40013 1748.89C-0.396952 1726.67 -0.535189 316.849 1.40013 294.213C7.75904 217.418 39.83 147.288 93.0513 93.8225C145.167 41.6069 216.359 7.58351 287.551 1.19544C298.333 0.223339 536.654 -0.193274 1035.41 0.0844684C1717.89 0.501082 1768.21 0.778824 1780.65 3.00076C1827.51 11.333 1868.98 27.8587 1907 53.411C1928.98 68.1313 1943.49 80.352 1961.74 99.5162C1984.55 123.541 1997.96 142.427 2013.44 172.424C2028.51 201.864 2038.88 232.694 2045.51 267.828C2047.86 280.465 2048 315.183 2048 1019.12V1757.22L2044.82 1775.27C2032.38 1846.93 2002.38 1906.09 1954.14 1954.56C1901.47 2007.33 1836.36 2038.99 1765.03 2046.77C1748.58 2048.43 295.016 2048.43 279.257 2046.63ZM980.533 1757.78L984.266 1753.75V1434.62C984.266 1228.68 983.713 1112.16 982.883 1105.92C976.386 1060.64 954.407 1021.76 918.188 991.208C871.188 951.629 795.019 913.995 677.379 872.195C620.564 851.92 534.166 827.617 462.421 811.508C457.859 810.536 448.597 808.453 441.685 806.787C410.582 799.843 327.501 782.484 312.71 779.985C293.772 776.652 277.598 787.484 271.377 807.342C268.751 815.813 268.751 1484.76 271.515 1494.75C274.28 1505.31 278.427 1512.53 286.721 1521.14C296.398 1531 305.798 1535.3 323.216 1537.94C373.811 1545.58 478.871 1566.13 539.142 1580.16C552.413 1583.22 566.099 1586.41 569.554 1587.1C580.89 1589.33 637.567 1603.91 660.1 1610.3C737.513 1632.1 812.714 1659.18 857.088 1681.54C899.388 1702.64 911.553 1711.25 938.509 1738.2C950.121 1750 961.318 1760.55 963.392 1761.66C968.645 1764.44 975.833 1762.78 980.533 1757.78ZM1105.08 1741.67C1134.81 1712.37 1150.01 1701.53 1187.2 1683.2C1258.11 1648.21 1385.02 1607.66 1505.42 1581.55C1508.05 1580.99 1520.49 1578.22 1533.07 1575.58C1582 1564.88 1628.73 1555.86 1695.5 1544.05C1742.91 1535.72 1747.75 1534.33 1758.67 1525.86C1765.44 1520.45 1773.46 1507.95 1776.64 1497.81C1779.13 1489.89 1779.13 1477.67 1778.85 1149.1L1778.44 808.731L1774.57 800.815C1768.9 789.15 1757.29 780.818 1744.71 779.29C1737.93 778.457 1731.16 779.707 1660.25 794.983C1569.01 814.564 1496.57 832.617 1443.9 848.865C1347.97 878.305 1281.2 903.858 1218.58 935.104C1178.9 954.823 1158.17 967.738 1135.22 986.625C1094.72 1020.09 1072.74 1056.89 1065.13 1104.53C1063.34 1115.22 1063.06 1162.44 1063.06 1435.18V1753.33L1065.96 1757.08C1069.83 1761.94 1073.57 1763.61 1079.51 1762.78C1083.24 1762.36 1088.08 1758.33 1105.08 1741.67ZM1056.43 812.897C1161.21 798.455 1245.53 722.492 1272.49 618.478C1283.69 575.15 1282.03 522.101 1268.34 480.995C1261.29 459.887 1255.76 447.666 1245.12 429.613C1222.03 390.729 1188.86 358.927 1148.63 336.847C1076.47 297.269 986.478 294.908 911.829 330.875C885.979 343.235 864.691 358.65 843.264 380.175C821.699 401.977 809.811 418.225 797.093 442.806C757.004 520.99 759.769 613.339 804.558 689.441C833.173 738.046 881.141 778.735 932.842 798.177C972.239 813.036 1016.47 818.313 1056.43 812.897Z" fill="url(#paint0_linear_1_2)"/>
</g>
<defs>
<linearGradient id="paint0_linear_1_2" x1="1024" y1="0" x2="1024" y2="2048" gradientUnits="userSpaceOnUse">
<stop stop-color="#458FEB"/>
<stop offset="1" stop-color="#275185"/>
</linearGradient>
<clipPath id="clip0_1_2">
<rect width="2048" height="2048" fill="white"/>
</clipPath>
</defs>
</svg>
